<svg xmlns="http://www.w3.org/2000/svg" fill="#09ecf3" viewBox="0 0 50 50" width="50px" height="50px"><path d="M 11 4 C 7.134 4 4 7.134 4 11 L 4 39 C 4 42.866 7.134 46 11 46 L 39 46 C 42.866 46 46 42.866 46 39 L 46 11 C 46 7.134 42.866 4 39 4 L 11 4 z M 11 6 L 39 6 C 41.757 6 44 8.243 44 11 L 44 39 C 44 41.757 41.757 44 39 44 L 11 44 C 8.243 44 6 41.757 6 39 L 6 11 C 6 8.243 8.243 6 11 6 z M 24.904297 9.9941406 C 22.667297 9.9941406 20.113406 10.156516 17.316406 10.478516 L 16.71875 10.548828 C 14.68075 10.782828 14.711844 12.667422 14.714844 14.232422 C 14.722844 17.682422 13.824813 21.155828 13.257812 24.548828 C 12.776813 27.423828 12.307703 30.299734 11.845703 33.177734 C 11.622703 34.026734 11.295266 36.049031 12.572266 37.832031 C 13.282266 38.823031 14.689375 40.003906 17.359375 40.003906 C 17.725375 40.003906 18.115625 39.9815 18.515625 39.9375 C 21.005625 39.6605 22.727719 39.059391 23.636719 38.150391 L 24.453125 37.335938 C 25.477125 38.859938 27.315875 39.984375 29.671875 39.984375 C 30.121875 39.984375 30.463453 39.957344 30.939453 39.902344 C 33.047453 39.658344 34.683797 39.14425 35.841797 38.65625 C 37.049797 38.14725 37.605516 36.749109 37.103516 35.537109 L 33.828125 27.623047 C 35.778125 26.068047 37.636719 23.488172 37.636719 19.701172 C 37.636719 14.671172 35.136125 11.557313 30.203125 10.445312 C 29.730125 10.328312 28.094297 9.9941406 24.904297 9.9941406 z M 25.169922 13.142578 C 28.208984 13.161865 29.476562 13.507812 29.476562 13.507812 C 32.131563 14.097812 34.490234 15.370172 34.490234 19.701172 C 34.490234 24.814172 29.869141 26.289062 29.869141 26.289062 C 29.869141 26.289062 31.861047 31.824063 32.623047 33.664062 C 32.869047 34.258063 33.900391 36.023438 33.900391 36.023438 C 33.900391 36.023438 33.507328 36.220547 30.361328 36.810547 C 27.080328 37.425547 26.527344 34.253906 26.527344 34.253906 L 24.265625 28.058594 L 22.003906 28.058594 C 22.003906 28.058594 21.618719 32.433375 21.511719 33.859375 C 21.470719 34.400375 21.414062 35.925781 21.414062 35.925781 C 21.414062 35.925781 20.824922 36.515547 18.169922 36.810547 C 13.754922 37.301547 14.923828 33.859375 14.923828 33.859375 C 14.923828 33.859375 16.989813 20.979594 17.382812 19.308594 C 17.775813 17.636594 17.677734 13.605469 17.677734 13.605469 C 20.885484 13.236844 23.346484 13.131006 25.169922 13.142578 z M 24.533203 16.597656 C 24.135281 16.61 23.871094 16.654297 23.871094 16.654297 L 22.59375 24.519531 L 24.953125 24.519531 C 24.953125 24.519531 28.338219 24.026594 28.199219 19.308594 C 28.124969 16.800594 25.726969 16.560625 24.533203 16.597656 z"/></svg>
